<svg width="40" height="40" viewBox="0 0 40 40" fill="none" xmlns="http://www.w3.org/2000/svg">
<rect width="40" height="40" rx="4" fill="#0055BD"/>
<path d="M0 13H40V26.3333H0V13Z" fill="#086DD7"/>
<path d="M0 4C0 1.79086 1.79086 0 4 0H36C38.2091 0 40 1.79086 40 4V13.3333H0V4Z" fill="#1C90ED"/>
<path fill-rule="evenodd" clip-rule="evenodd" d="M18.547 31.9997L25.4753 19.9999L18.547 8H21.3094C27.9096 8 33.3095 13.3999 33.3095 19.9999C33.3095 26.6001 27.9096 32 21.3094 32L18.547 31.9997ZM16.2378 32L23.1661 19.9999L16.2378 8H7.00029L13.9283 19.9999L7 32H16.2378Z" fill="white"/>
</svg>
